<?xml version="1.0" encoding="UTF-8" standalone="no"?>
<svg
   width="32"
   height="32"
   viewBox="0 0 8.4666665 8.4666669"
   version="1.1"
   id="svg20249"
   inkscape:version="1.2.2 (b0a8486541, 2022-12-01)"
   sodipodi:docname="baseicon.svg"
   xmlns:inkscape="http://www.inkscape.org/namespaces/inkscape"
   xmlns:sodipodi="http://sodipodi.sourceforge.net/DTD/sodipodi-0.dtd"
   xmlns="http://www.w3.org/2000/svg"
   xmlns:svg="http://www.w3.org/2000/svg"
   xmlns:rdf="http://www.w3.org/1999/02/22-rdf-syntax-ns#"
   xmlns:cc="http://creativecommons.org/ns#"
   xmlns:dc="http://purl.org/dc/elements/1.1/">
  <defs
     id="defs20243" />
  <sodipodi:namedview
     id="base"
     pagecolor="#ffffff"
     bordercolor="#666666"
     borderopacity="1.0"
     inkscape:pageopacity="0.0"
     inkscape:pageshadow="2"
     inkscape:zoom="31.678384"
     inkscape:cx="12.07448"
     inkscape:cy="15.120721"
     inkscape:document-units="mm"
     inkscape:current-layer="iconlayer"
     showgrid="true"
     units="px"
     inkscape:window-width="2560"
     inkscape:window-height="1403"
     inkscape:window-x="3840"
     inkscape:window-y="720"
     inkscape:window-maximized="1"
     inkscape:document-rotation="0"
     inkscape:pagecheckerboard="0"
     inkscape:showpageshadow="2"
     inkscape:deskcolor="#d1d1d1">
    <inkscape:grid
       type="xygrid"
       id="grid20794"
       empspacing="4" />
    <inkscape:grid
       type="xygrid"
       id="grid20796"
       empspacing="1"
       originy="0.13229167"
       originx="0.13229167"
       dotted="true" />
  </sodipodi:namedview>
  <metadata
     id="metadata20246">
    <rdf:RDF>
      <cc:Work
         rdf:about="">
        <dc:format>image/svg+xml</dc:format>
        <dc:type
           rdf:resource="http://purl.org/dc/dcmitype/StillImage" />
      </cc:Work>
    </rdf:RDF>
  </metadata>
  <g
     inkscape:label="Base"
     inkscape:groupmode="layer"
     id="layer1"
     transform="translate(0,-288.53332)"
     sodipodi:insensitive="true">
    <path
       style="fill:#646464;fill-opacity:1;stroke:none;stroke-width:0.360358;stroke-linecap:round;stroke-linejoin:round;stroke-miterlimit:4;stroke-dasharray:none;stroke-dashoffset:0;stroke-opacity:1;paint-order:normal"
       d="m 4.5072672,291.74432 c -0.5663401,-0.15175 -1.1444399,0.18202 -1.29618,0.74836 l -1.05944,3.9538 a 4.2333333,4.2333333 0 0 0 0.98603,0.4092 4.2333333,4.2333333 0 0 0 5.1847901,-2.99343 4.2333333,4.2333333 0 0 0 0.1406401,-1.05798 z"
       id="rect824-2-2"
       inkscape:connector-curvature="0"
       inkscape:export-filename="/home/victor/newcontemporary.png"
       inkscape:export-xdpi="2165.5593"
       inkscape:export-ydpi="2165.5593" />
    <path
       id="path814-0-9"
       style="opacity:1;fill:#646464;fill-opacity:1;stroke:none;stroke-width:1;stroke-linecap:round;stroke-linejoin:round;stroke-miterlimit:4;stroke-dasharray:none;stroke-dashoffset:0;stroke-opacity:1;paint-order:normal"
       d="M 15.402344,0.00976563 A 15.999999,15.999999 0 0 0 0.54492188,11.857422 15.999999,15.999999 0 0 0 11.859375,31.453125 15.999999,15.999999 0 0 0 31.455078,20.140625 15.999999,15.999999 0 0 0 20.142578,0.54296875 15.999999,15.999999 0 0 0 15.402344,0.00976563 Z M 16,1 A 15,15 0 0 1 31,16 15,15 0 0 1 16,31 15,15 0 0 1 1,16 15,15 0 0 1 16,1 Z"
       transform="matrix(0.26458333,0,0,0.26458333,0,288.53332)" />
  </g>
  <g
     inkscape:groupmode="layer"
     id="iconlayer"
     inkscape:label="Icon">
    <path
       style="color:#000000;font-style:normal;font-variant:normal;font-weight:normal;font-stretch:normal;font-size:medium;line-height:normal;font-family:sans-serif;font-variant-ligatures:normal;font-variant-position:normal;font-variant-caps:normal;font-variant-numeric:normal;font-variant-alternates:normal;font-feature-settings:normal;text-indent:0;text-align:start;text-decoration:none;text-decoration-line:none;text-decoration-style:solid;text-decoration-color:#000000;letter-spacing:normal;word-spacing:normal;text-transform:none;writing-mode:lr-tb;direction:ltr;text-orientation:mixed;dominant-baseline:auto;baseline-shift:baseline;text-anchor:start;white-space:normal;shape-padding:0;clip-rule:nonzero;display:inline;overflow:visible;visibility:visible;isolation:auto;mix-blend-mode:normal;color-interpolation:sRGB;color-interpolation-filters:linearRGB;solid-color:#000000;solid-opacity:1;vector-effect:none;fill:#ffffff;fill-opacity:1;fill-rule:nonzero;stroke:none;stroke-width:1.05833;stroke-linecap:round;stroke-linejoin:round;stroke-miterlimit:4;stroke-dasharray:none;stroke-dashoffset:0;stroke-opacity:1;color-rendering:auto;image-rendering:auto;shape-rendering:auto;text-rendering:auto;enable-background:accumulate"
       d="m 4.4204199,4.5573349 a 0.79975709,0.79975709 0 0 0 -0.27803,1.0944198 L 4.54232,6.3444749 a 0.79975709,0.79975709 0 0 0 1.0926599,0.2927898 l 0.6927,-0.39994 A 0.79988237,0.79988237 0 1 0 5.5278099,4.8518947 0.79975709,0.79975709 0 0 0 4.42054,4.5572648 Z"
       id="path12163"
       inkscape:connector-curvature="0"
       inkscape:export-filename="/home/victor/newcontemporary.png"
       inkscape:export-xdpi="2165.5593"
       inkscape:export-ydpi="2165.5593" />
  </g>
</svg>
